<svg data-v-0dd9719b="" version="1.0" xmlns="http://www.w3.org/2000/svg" xmlns:xlink="http://www.w3.org/1999/xlink" width="100%" height="100%" viewBox="0 0 340.000000 250.000000" preserveAspectRatio="xMidYMid meet" color-interpolation-filters="sRGB" style="margin: auto;">   <g data-v-0dd9719b="" fill="#4e374f" class="endsvg" transform="translate(47.30000305175781,89.69700241088867)"><!----> <!----> <g class="tp-name" transform="matrix(1,0,0,1,0,0)" opacity="1"><g><rect data-gra="graph-name-bg" stroke-width="2" class="i-icon-bg" x="0" y="0" width="245.39999389648438" height="56.44999694824219" fill-opacity="0"></rect> <!----> <!----> </g> <g transform="translate(0,0)"><g data-gra="path-name-bg" mask="url(#91fb8ede-a3d1-48f9-9a3c-7c2016995633)"><g><rect data-gra="graph-name-bg" stroke-width="2" class="i-icon-bg" x="0" y="0" width="78.41000366210938" height="51.44999694824219" fill="#4e374f"></rect> <!----> <!----> </g> <g transform="translate(5,5)"><g data-gra="path-name" fill="#4e374f"><g transform="scale(1)"><path d="M13.48 0L3.53 0L3.53-40.30L12.19-40.30Q14.93-40.30 16.82-39.60Q18.71-38.91 19.85-37.56Q21.00-36.22 21.52-34.35Q22.04-32.49 22.04-30.25L22.04-30.25Q22.04-28.31 21.57-26.49Q21.09-24.68 20-23.41Q18.91-22.14 16.92-21.74L16.92-21.74Q19.25-21.09 20.60-19.53Q21.94-17.96 22.46-15.90Q22.99-13.83 22.99-11.64L22.99-11.64Q22.99-9.25 22.56-7.14Q22.14-5.02 21.07-3.43Q20-1.84 18.16-0.92Q16.32 0 13.48 0L13.48 0ZM7.31-20L7.31-2.84L12.74-2.84Q16.67-2.84 17.99-4.98Q19.30-7.11 19.30-11.64L19.30-11.64Q19.30-14.08 18.71-15.97Q18.11-17.86 16.69-18.93Q15.27-20 12.84-20L12.84-20L7.31-20ZM7.31-37.36L7.31-22.94L12.79-22.94Q15.12-22.94 16.37-23.86Q17.61-24.78 18.11-26.39Q18.61-28.01 18.61-30.25L18.61-30.25Q18.61-32.69 17.94-34.28Q17.26-35.87 15.62-36.62Q13.98-37.36 10.90-37.36L10.90-37.36L7.31-37.36ZM30 0L26.32 0L34.83-40.30L38.81-40.30L47.36 0L43.63 0L41.64-10.80L32.04-10.80L30 0ZM36.87-35.27L32.59-13.53L41.14-13.53L36.87-35.27ZM61.34 0L52.24 0L52.24-40.30L61.00-40.30Q65.22-40.30 67.59-38.83Q69.95-37.36 70.95-34.68Q71.94-31.99 71.94-28.46L71.94-28.46L71.94-12.44Q71.94-8.71 70.95-5.90Q69.95-3.08 67.66-1.54Q65.37 0 61.34 0L61.34 0ZM56.02-37.36L56.02-2.84L61.09-2.84Q64.28-2.84 65.77-4.15Q67.26-5.47 67.66-7.79Q68.06-10.10 68.06-13.03L68.06-13.03L68.06-28.06Q68.06-31.09 67.54-33.16Q67.01-35.22 65.50-36.29Q63.98-37.36 60.95-37.36L60.95-37.36L56.02-37.36Z" transform="translate(-3.5323383084577116, 40.84577114427861)"></path></g></g></g></g> <g data-gra="path-name-1-bg" transform="translate(83.41000366210938,5)" mask="url(#d0b3dcfb-18cc-4df3-9054-27a7bc1e3e7d)"><g><rect data-gra="graph-name-bg" stroke-width="2" class="i-icon-bg" x="0" y="0" width="161.989990234375" height="51.44999694824219" fill="#4e374f"></rect> <!----> <!----> </g> <g transform="translate(5,5)"><g data-gra="path-name-1" fill="#4e374f"><g transform="scale(1)"><path d="M11.89 0L2.99 0L2.99-40.30L16.52-40.30Q20.15-40.30 22.49-38.93Q24.83-37.56 25.97-34.95Q27.11-32.34 27.11-28.61L27.11-28.61Q27.11-23.93 25.57-21.47Q24.03-19.00 21.39-18.06Q18.76-17.11 15.47-17.11L15.47-17.11L11.89-17.11L11.89 0ZM11.89-34.03L11.89-23.33L14.88-23.33Q16.52-23.33 17.36-23.93Q18.21-24.53 18.48-25.72Q18.76-26.92 18.76-28.76L18.76-28.76Q18.76-30.30 18.53-31.47Q18.31-32.64 17.46-33.33Q16.62-34.03 14.83-34.03L14.83-34.03L11.89-34.03ZM42.94 0.60L42.94 0.60Q38.41 0.60 35.77-1.00Q33.13-2.59 31.99-5.57Q30.85-8.56 30.85-12.69L30.85-12.69L30.85-27.66Q30.85-31.84 31.99-34.78Q33.13-37.71 35.77-39.28Q38.41-40.85 42.94-40.85L42.94-40.85Q47.51-40.85 50.17-39.28Q52.84-37.71 53.98-34.78Q55.12-31.84 55.12-27.66L55.12-27.66L55.12-12.69Q55.12-8.56 53.98-5.57Q52.84-2.59 50.17-1.00Q47.51 0.60 42.94 0.60ZM42.94-5.72L42.94-5.72Q44.33-5.72 44.98-6.42Q45.62-7.11 45.82-8.21Q46.02-9.30 46.02-10.45L46.02-10.45L46.02-29.85Q46.02-31.04 45.82-32.11Q45.62-33.18 44.98-33.88Q44.33-34.58 42.94-34.58L42.94-34.58Q41.64-34.58 41.00-33.88Q40.35-33.18 40.15-32.11Q39.95-31.04 39.95-29.85L39.95-29.85L39.95-10.45Q39.95-9.30 40.12-8.21Q40.30-7.11 40.92-6.42Q41.54-5.72 42.94-5.72ZM78.76 0L60.55 0L60.55-40.30L78.66-40.30L78.66-34.23L69.45-34.23L69.45-24.23L76.47-24.23L76.47-18.06L69.45-18.06L69.45-6.02L78.76-6.02L78.76 0ZM95.37 0L86.42 0L86.42-33.68L80.35-33.68L80.35-40.30L101.39-40.30L101.39-33.68L95.37-33.68L95.37 0ZM113.83 0L104.93 0L104.93-40.30L116.02-40.30Q120.10-40.30 123.08-39.40Q126.07-38.51 127.74-36.19Q129.40-33.88 129.40-29.65L129.40-29.65Q129.40-27.16 129.00-25.22Q128.61-23.28 127.54-21.87Q126.47-20.45 124.48-19.50L124.48-19.50L130 0L120.80 0L116.37-18.06L113.83-18.06L113.83 0ZM113.83-34.33L113.83-23.18L116.32-23.18Q118.21-23.18 119.25-23.86Q120.30-24.53 120.72-25.80Q121.14-27.06 121.14-28.86L121.14-28.86Q121.14-31.44 120.20-32.89Q119.25-34.33 116.72-34.33L116.72-34.33L113.83-34.33ZM147.46 0L138.91 0L138.91-16.47L131.24-40.30L139.65-40.30L143.48-27.56L146.92-40.30L154.98-40.30L147.46-16.47L147.46 0Z" transform="translate(-2.985074626865672, 40.84577114427861)"></path></g></g></g></g></g></g> <!----> <!----> <!----> <g data-gra="path-slogan" fill-rule="" class="tp-slogan" fill="#4e374f" transform="matrix(1,0,0,1,42.31499481201172,62.44999694824219)" opacity="1"><!----> <!----> <g transform="scale(1, 1)"><g transform="scale(1)"><path d="M2.71-7.03L2.71 0L3.72 0L3.72-7.03L6.10-7.03L6.10-7.87L0.34-7.87L0.34-7.03ZM7.51-7.87L7.51 0L8.51 0L8.51-3.71L12.17-3.71L12.17 0L13.18 0L13.18-7.87L12.17-7.87L12.17-4.57L8.51-4.57L8.51-7.87ZM15.34-7.87L15.34 0L19.99 0L19.99-0.85L16.33-0.85L16.33-3.71L19.32-3.71L19.32-4.56L16.33-4.56L16.33-7.03L19.87-7.03L19.87-7.87ZM24.08-7.87L24.08 0L26.59 0C27.03 0 27.44-0.05 27.80-0.14C28.17-0.24 28.49-0.38 28.75-0.58C29.02-0.77 29.22-1.01 29.36-1.30C29.51-1.58 29.58-1.92 29.58-2.30C29.58-2.85 29.42-3.28 29.10-3.59C28.78-3.90 28.33-4.10 27.76-4.19L27.76-4.24C28.22-4.36 28.56-4.57 28.79-4.89C29.01-5.21 29.12-5.56 29.12-5.95C29.12-6.30 29.06-6.59 28.93-6.83C28.79-7.08 28.61-7.28 28.37-7.43C28.14-7.58 27.85-7.69 27.52-7.76C27.19-7.84 26.82-7.87 26.42-7.87ZM26.24-4.51L25.08-4.51L25.08-7.08L26.29-7.08C26.91-7.08 27.37-6.99 27.68-6.80C27.99-6.61 28.14-6.30 28.14-5.87C28.14-5.43 27.99-5.09 27.70-4.86C27.41-4.63 26.92-4.51 26.24-4.51ZM26.45-0.79L25.08-0.79L25.08-3.77L26.45-3.77C27.14-3.77 27.68-3.65 28.04-3.43C28.41-3.20 28.60-2.84 28.60-2.35C28.60-1.82 28.41-1.42 28.03-1.17C27.66-0.92 27.13-0.79 26.45-0.79ZM31.14-7.87L31.14 0L35.80 0L35.80-0.85L32.14-0.85L32.14-3.71L35.12-3.71L35.12-4.56L32.14-4.56L32.14-7.03L35.68-7.03L35.68-7.87ZM37.49-1.72L36.89-1.02C37.23-0.66 37.64-0.38 38.11-0.17C38.58 0.04 39.10 0.14 39.65 0.14C40.06 0.14 40.44 0.09 40.76-0.03C41.09-0.15 41.37-0.31 41.60-0.51C41.84-0.71 42.01-0.95 42.14-1.22C42.26-1.50 42.32-1.79 42.32-2.10C42.32-2.39 42.28-2.64 42.20-2.86C42.11-3.08 42-3.27 41.86-3.44C41.71-3.60 41.54-3.75 41.34-3.87C41.14-3.99 40.93-4.10 40.70-4.20L39.59-4.68C39.43-4.74 39.27-4.81 39.12-4.89C38.97-4.97 38.83-5.05 38.70-5.15C38.57-5.25 38.47-5.37 38.39-5.50C38.32-5.63 38.28-5.80 38.28-5.99C38.28-6.35 38.41-6.63 38.68-6.83C38.95-7.04 39.30-7.14 39.74-7.14C40.11-7.14 40.44-7.07 40.73-6.94C41.03-6.81 41.29-6.63 41.53-6.40L42.07-7.04C41.79-7.33 41.45-7.57 41.05-7.75C40.65-7.93 40.22-8.02 39.74-8.02C39.38-8.02 39.05-7.96 38.75-7.86C38.45-7.76 38.19-7.61 37.97-7.42C37.75-7.23 37.58-7.01 37.46-6.76C37.33-6.50 37.27-6.22 37.27-5.93C37.27-5.64 37.32-5.39 37.42-5.17C37.51-4.95 37.64-4.76 37.79-4.60C37.94-4.44 38.11-4.30 38.30-4.19C38.50-4.08 38.68-3.98 38.87-3.90L40.00-3.41C40.18-3.32 40.35-3.24 40.51-3.16C40.67-3.08 40.81-2.99 40.93-2.89C41.04-2.79 41.13-2.67 41.20-2.53C41.27-2.39 41.30-2.22 41.30-2.02C41.30-1.63 41.16-1.32 40.87-1.09C40.58-0.85 40.18-0.73 39.66-0.73C39.25-0.73 38.86-0.82 38.48-1.00C38.10-1.18 37.77-1.42 37.49-1.72ZM45.26-7.03L45.26 0L46.27 0L46.27-7.03L48.65-7.03L48.65-7.87L42.89-7.87L42.89-7.03ZM52.49-7.87L52.49 0L55.00 0C55.44 0 55.84-0.05 56.21-0.14C56.58-0.24 56.89-0.38 57.16-0.58C57.42-0.77 57.62-1.01 57.77-1.30C57.91-1.58 57.98-1.92 57.98-2.30C57.98-2.85 57.82-3.28 57.50-3.59C57.18-3.90 56.74-4.10 56.16-4.19L56.16-4.24C56.62-4.36 56.97-4.57 57.19-4.89C57.42-5.21 57.53-5.56 57.53-5.95C57.53-6.30 57.46-6.59 57.33-6.83C57.20-7.08 57.01-7.28 56.78-7.43C56.54-7.58 56.26-7.69 55.93-7.76C55.59-7.84 55.23-7.87 54.83-7.87ZM54.65-4.51L53.48-4.51L53.48-7.08L54.70-7.08C55.31-7.08 55.77-6.99 56.08-6.80C56.39-6.61 56.54-6.30 56.54-5.87C56.54-5.43 56.40-5.09 56.11-4.86C55.81-4.63 55.33-4.51 54.65-4.51ZM54.85-0.79L53.48-0.79L53.48-3.77L54.85-3.77C55.55-3.77 56.08-3.65 56.45-3.43C56.82-3.20 57-2.84 57-2.35C57-1.82 56.81-1.42 56.44-1.17C56.06-0.92 55.53-0.79 54.85-0.79ZM62.89-3.20L60.53-3.20L60.90-4.40C61.04-4.84 61.18-5.28 61.31-5.72C61.44-6.15 61.56-6.60 61.68-7.06L61.73-7.06C61.86-6.60 61.98-6.15 62.11-5.72C62.24-5.28 62.38-4.84 62.52-4.40ZM63.14-2.40L63.89 0L64.96 0L62.29-7.87L61.16-7.87L58.50 0L59.52 0L60.28-2.40ZM66.07-7.87L66.07 0L68.09 0C68.68 0 69.20-0.09 69.66-0.27C70.12-0.45 70.50-0.71 70.81-1.05C71.12-1.39 71.36-1.81 71.52-2.30C71.68-2.79 71.76-3.35 71.76-3.97C71.76-5.23 71.44-6.19 70.81-6.86C70.18-7.54 69.26-7.87 68.04-7.87ZM67.97-0.82L67.07-0.82L67.07-7.06L67.97-7.06C68.89-7.06 69.58-6.79 70.04-6.26C70.50-5.74 70.73-4.97 70.73-3.97C70.73-2.97 70.50-2.20 70.04-1.64C69.58-1.09 68.89-0.82 67.97-0.82ZM75.88-7.87L75.88 0L76.87 0L76.87-3.12L78.29-3.12C78.72-3.12 79.11-3.17 79.47-3.27C79.83-3.37 80.13-3.52 80.39-3.72C80.64-3.92 80.84-4.17 80.98-4.48C81.12-4.78 81.19-5.14 81.19-5.56C81.19-5.99 81.12-6.35 80.98-6.65C80.84-6.94 80.65-7.18 80.39-7.36C80.14-7.54 79.84-7.67 79.48-7.75C79.12-7.83 78.72-7.87 78.29-7.87ZM78.17-3.94L76.87-3.94L76.87-7.07L78.17-7.07C78.85-7.07 79.36-6.96 79.69-6.74C80.03-6.52 80.20-6.12 80.20-5.56C80.20-5.00 80.03-4.59 79.70-4.33C79.37-4.07 78.86-3.94 78.17-3.94ZM85.69 0.14C86.19 0.14 86.64 0.05 87.05-0.14C87.47-0.34 87.82-0.61 88.12-0.97C88.42-1.32 88.65-1.75 88.82-2.26C88.98-2.77 89.06-3.34 89.06-3.97C89.06-4.60 88.98-5.16 88.82-5.66C88.65-6.16 88.42-6.58 88.12-6.93C87.82-7.28 87.47-7.55 87.05-7.73C86.64-7.92 86.19-8.02 85.69-8.02C85.20-8.02 84.74-7.92 84.33-7.74C83.92-7.56 83.56-7.29 83.27-6.94C82.97-6.59 82.74-6.17 82.58-5.67C82.41-5.17 82.33-4.60 82.33-3.97C82.33-3.34 82.41-2.77 82.58-2.26C82.74-1.75 82.97-1.32 83.27-0.97C83.56-0.61 83.92-0.34 84.33-0.14C84.74 0.05 85.20 0.14 85.69 0.14ZM85.69-0.73C85.34-0.73 85.02-0.81 84.74-0.96C84.45-1.11 84.21-1.33 84.01-1.61C83.80-1.90 83.64-2.24 83.53-2.63C83.42-3.03 83.36-3.48 83.36-3.97C83.36-4.46 83.42-4.90 83.53-5.29C83.64-5.68 83.80-6.02 84.01-6.29C84.21-6.56 84.45-6.77 84.74-6.92C85.02-7.07 85.34-7.14 85.69-7.14C86.04-7.14 86.36-7.07 86.65-6.92C86.93-6.77 87.17-6.56 87.38-6.29C87.58-6.02 87.74-5.68 87.85-5.29C87.96-4.90 88.02-4.46 88.02-3.97C88.02-3.48 87.96-3.03 87.85-2.63C87.74-2.24 87.58-1.90 87.38-1.61C87.17-1.33 86.93-1.11 86.65-0.96C86.36-0.81 86.04-0.73 85.69-0.73ZM90.76-7.87L90.76 0L95.41 0L95.41-0.85L91.75-0.85L91.75-3.71L94.74-3.71L94.74-4.56L91.75-4.56L91.75-7.03L95.29-7.03L95.29-7.87ZM98.71-7.03L98.71 0L99.72 0L99.72-7.03L102.10-7.03L102.10-7.87L96.34-7.87L96.34-7.03ZM104.51-4.14L104.51-7.07L105.83-7.07C106.44-7.07 106.92-6.96 107.24-6.76C107.57-6.55 107.74-6.18 107.74-5.66C107.74-5.15 107.57-4.77 107.24-4.52C106.92-4.27 106.44-4.14 105.83-4.14ZM107.83 0L108.96 0L106.97-3.43C107.50-3.57 107.93-3.82 108.25-4.19C108.57-4.56 108.73-5.05 108.73-5.66C108.73-6.07 108.66-6.42 108.53-6.70C108.39-6.98 108.20-7.20 107.96-7.38C107.71-7.56 107.42-7.68 107.08-7.76C106.74-7.83 106.37-7.87 105.97-7.87L103.51-7.87L103.51 0L104.51 0L104.51-3.32L105.94-3.32ZM111.59-3.05L111.59 0L112.60 0L112.60-3.05L114.96-7.87L113.92-7.87L112.91-5.65C112.79-5.36 112.66-5.08 112.52-4.80C112.39-4.52 112.25-4.23 112.12-3.94L112.07-3.94C111.93-4.23 111.80-4.52 111.68-4.80C111.56-5.08 111.44-5.36 111.31-5.65L110.29-7.87L109.22-7.87ZM121.80-3.20L119.44-3.20L119.81-4.40C119.95-4.84 120.09-5.28 120.22-5.72C120.34-6.15 120.47-6.60 120.59-7.06L120.64-7.06C120.76-6.60 120.89-6.15 121.02-5.72C121.15-5.28 121.28-4.84 121.43-4.40ZM122.05-2.40L122.80 0L123.86 0L121.20-7.87L120.07-7.87L117.41 0L118.43 0L119.18-2.40ZM125.98-4.14L125.98-7.07L127.30-7.07C127.91-7.07 128.38-6.96 128.71-6.76C129.04-6.55 129.20-6.18 129.20-5.66C129.20-5.15 129.04-4.77 128.71-4.52C128.38-4.27 127.91-4.14 127.30-4.14ZM129.30 0L130.43 0L128.44-3.43C128.97-3.57 129.40-3.82 129.72-4.19C130.04-4.56 130.20-5.05 130.20-5.66C130.20-6.07 130.13-6.42 130.00-6.70C129.86-6.98 129.67-7.20 129.43-7.38C129.18-7.56 128.89-7.68 128.55-7.76C128.21-7.83 127.84-7.87 127.44-7.87L124.98-7.87L124.98 0L125.98 0L125.98-3.32L127.40-3.32ZM134.86 0.14C135.35 0.14 135.81 0.05 136.22-0.14C136.63-0.34 136.99-0.61 137.29-0.97C137.59-1.32 137.82-1.75 137.98-2.26C138.15-2.77 138.23-3.34 138.23-3.97C138.23-4.60 138.15-5.16 137.98-5.66C137.82-6.16 137.59-6.58 137.29-6.93C136.99-7.28 136.63-7.55 136.22-7.73C135.81-7.92 135.35-8.02 134.86-8.02C134.36-8.02 133.91-7.92 133.49-7.74C133.08-7.56 132.73-7.29 132.43-6.94C132.14-6.59 131.91-6.17 131.74-5.67C131.58-5.17 131.50-4.60 131.50-3.97C131.50-3.34 131.58-2.77 131.74-2.26C131.91-1.75 132.14-1.32 132.43-0.97C132.73-0.61 133.08-0.34 133.49-0.14C133.91 0.05 134.36 0.14 134.86 0.14ZM134.86-0.73C134.50-0.73 134.19-0.81 133.90-0.96C133.62-1.11 133.37-1.33 133.17-1.61C132.97-1.90 132.81-2.24 132.70-2.63C132.58-3.03 132.53-3.48 132.53-3.97C132.53-4.46 132.58-4.90 132.70-5.29C132.81-5.68 132.97-6.02 133.17-6.29C133.37-6.56 133.62-6.77 133.90-6.92C134.19-7.07 134.50-7.14 134.86-7.14C135.21-7.14 135.53-7.07 135.81-6.92C136.09-6.77 136.34-6.56 136.54-6.29C136.75-6.02 136.90-5.68 137.02-5.29C137.13-4.90 137.18-4.46 137.18-3.97C137.18-3.48 137.13-3.03 137.02-2.63C136.90-2.24 136.75-1.90 136.54-1.61C136.34-1.33 136.09-1.11 135.81-0.96C135.53-0.81 135.21-0.73 134.86-0.73ZM139.88-7.87L139.88-3.25C139.88-2.62 139.96-2.09 140.10-1.66C140.24-1.22 140.44-0.87 140.69-0.61C140.95-0.34 141.25-0.15 141.59-0.03C141.94 0.09 142.32 0.14 142.72 0.14C143.12 0.14 143.49 0.09 143.83-0.03C144.18-0.15 144.47-0.34 144.73-0.61C144.98-0.87 145.18-1.22 145.32-1.66C145.46-2.09 145.54-2.62 145.54-3.25L145.54-7.87L144.58-7.87L144.58-3.23C144.58-2.76 144.53-2.36 144.43-2.04C144.34-1.72 144.20-1.46 144.04-1.27C143.87-1.08 143.67-0.94 143.45-0.86C143.22-0.77 142.98-0.73 142.72-0.73C142.46-0.73 142.22-0.77 142.00-0.86C141.77-0.94 141.58-1.08 141.41-1.27C141.25-1.46 141.12-1.72 141.02-2.04C140.93-2.36 140.88-2.76 140.88-3.23L140.88-7.87ZM147.66-7.87L147.66 0L148.61 0L148.61-4.12C148.61-4.53 148.59-4.95 148.57-5.36C148.54-5.77 148.51-6.18 148.48-6.58L148.52-6.58L149.38-4.96L152.23 0L153.26 0L153.26-7.87L152.32-7.87L152.32-3.80C152.32-3.39 152.33-2.97 152.36-2.54C152.39-2.11 152.41-1.70 152.44-1.30L152.39-1.30L151.54-2.93L148.69-7.87ZM155.42-7.87L155.42 0L157.44 0C158.03 0 158.56-0.09 159.01-0.27C159.47-0.45 159.85-0.71 160.16-1.05C160.48-1.39 160.71-1.81 160.87-2.30C161.03-2.79 161.11-3.35 161.11-3.97C161.11-5.23 160.80-6.19 160.16-6.86C159.53-7.54 158.61-7.87 157.39-7.87ZM157.32-0.82L156.42-0.82L156.42-7.06L157.32-7.06C158.24-7.06 158.93-6.79 159.39-6.26C159.85-5.74 160.08-4.97 160.08-3.97C160.08-2.97 159.85-2.20 159.39-1.64C158.93-1.09 158.24-0.82 157.32-0.82Z" transform="translate(-0.336, 8.016)"></path></g></g></g></g><mask id="91fb8ede-a3d1-48f9-9a3c-7c2016995633"><g fill="white"><rect data-gra="graph-name-bg" stroke-width="2" class="i-icon-bg" x="0" y="0" width="78.41000366210938" height="51.44999694824219"></rect>   </g> <g transform="translate(5,5)" fill="black"><g data-gra="path-name"><g transform="scale(1)"><path d="M13.48 0L3.53 0L3.53-40.30L12.19-40.30Q14.93-40.30 16.82-39.60Q18.71-38.91 19.85-37.56Q21.00-36.22 21.52-34.35Q22.04-32.49 22.04-30.25L22.04-30.25Q22.04-28.31 21.57-26.49Q21.09-24.68 20-23.41Q18.91-22.14 16.92-21.74L16.92-21.74Q19.25-21.09 20.60-19.53Q21.94-17.96 22.46-15.90Q22.99-13.83 22.99-11.64L22.99-11.64Q22.99-9.25 22.56-7.14Q22.14-5.02 21.07-3.43Q20-1.84 18.16-0.92Q16.32 0 13.48 0L13.48 0ZM7.31-20L7.31-2.84L12.74-2.84Q16.67-2.84 17.99-4.98Q19.30-7.11 19.30-11.64L19.30-11.64Q19.30-14.08 18.71-15.97Q18.11-17.86 16.69-18.93Q15.27-20 12.84-20L12.84-20L7.31-20ZM7.31-37.36L7.31-22.94L12.79-22.94Q15.12-22.94 16.37-23.86Q17.61-24.78 18.11-26.39Q18.61-28.01 18.61-30.25L18.61-30.25Q18.61-32.69 17.94-34.28Q17.26-35.87 15.62-36.62Q13.98-37.36 10.90-37.36L10.90-37.36L7.31-37.36ZM30 0L26.32 0L34.83-40.30L38.81-40.30L47.36 0L43.63 0L41.64-10.80L32.04-10.80L30 0ZM36.87-35.27L32.59-13.53L41.14-13.53L36.87-35.27ZM61.34 0L52.24 0L52.24-40.30L61.00-40.30Q65.22-40.30 67.59-38.83Q69.95-37.36 70.95-34.68Q71.94-31.99 71.94-28.46L71.94-28.46L71.94-12.44Q71.94-8.71 70.95-5.90Q69.95-3.08 67.66-1.54Q65.37 0 61.34 0L61.34 0ZM56.02-37.36L56.02-2.84L61.09-2.84Q64.28-2.84 65.77-4.15Q67.26-5.47 67.66-7.79Q68.06-10.10 68.06-13.03L68.06-13.03L68.06-28.06Q68.06-31.09 67.54-33.16Q67.01-35.22 65.50-36.29Q63.98-37.36 60.95-37.36L60.95-37.36L56.02-37.36Z" transform="translate(-3.5323383084577116, 40.84577114427861)"></path></g></g></g></mask><mask id="d0b3dcfb-18cc-4df3-9054-27a7bc1e3e7d"><g fill="white"><rect data-gra="graph-name-bg" stroke-width="2" class="i-icon-bg" x="0" y="0" width="161.989990234375" height="51.44999694824219"></rect>   </g> <g transform="translate(5,5)" fill="black"><g data-gra="path-name-1"><g transform="scale(1)"><path d="M11.89 0L2.99 0L2.99-40.30L16.52-40.30Q20.15-40.30 22.49-38.93Q24.83-37.56 25.97-34.95Q27.11-32.34 27.11-28.61L27.11-28.61Q27.11-23.93 25.57-21.47Q24.03-19.00 21.39-18.06Q18.76-17.11 15.47-17.11L15.47-17.11L11.89-17.11L11.89 0ZM11.89-34.03L11.89-23.33L14.88-23.33Q16.52-23.33 17.36-23.93Q18.21-24.53 18.48-25.72Q18.76-26.92 18.76-28.76L18.76-28.76Q18.76-30.30 18.53-31.47Q18.31-32.64 17.46-33.33Q16.62-34.03 14.83-34.03L14.83-34.03L11.89-34.03ZM42.94 0.60L42.94 0.60Q38.41 0.60 35.77-1.00Q33.13-2.59 31.99-5.57Q30.85-8.56 30.85-12.69L30.85-12.69L30.85-27.66Q30.85-31.84 31.99-34.78Q33.13-37.71 35.77-39.28Q38.41-40.85 42.94-40.85L42.94-40.85Q47.51-40.85 50.17-39.28Q52.84-37.71 53.98-34.78Q55.12-31.84 55.12-27.66L55.12-27.66L55.12-12.69Q55.12-8.56 53.98-5.57Q52.84-2.59 50.17-1.00Q47.51 0.60 42.94 0.60ZM42.94-5.72L42.94-5.72Q44.33-5.72 44.98-6.42Q45.62-7.11 45.82-8.21Q46.02-9.30 46.02-10.45L46.02-10.45L46.02-29.85Q46.02-31.04 45.82-32.11Q45.62-33.18 44.98-33.88Q44.33-34.58 42.94-34.58L42.94-34.58Q41.64-34.58 41.00-33.88Q40.35-33.18 40.15-32.11Q39.95-31.04 39.95-29.85L39.95-29.85L39.95-10.45Q39.95-9.30 40.12-8.21Q40.30-7.11 40.92-6.42Q41.54-5.72 42.94-5.72ZM78.76 0L60.55 0L60.55-40.30L78.66-40.30L78.66-34.23L69.45-34.23L69.45-24.23L76.47-24.23L76.47-18.06L69.45-18.06L69.45-6.02L78.76-6.02L78.76 0ZM95.37 0L86.42 0L86.42-33.68L80.35-33.68L80.35-40.30L101.39-40.30L101.39-33.68L95.37-33.68L95.37 0ZM113.83 0L104.93 0L104.93-40.30L116.02-40.30Q120.10-40.30 123.08-39.40Q126.07-38.51 127.74-36.19Q129.40-33.88 129.40-29.65L129.40-29.65Q129.40-27.16 129.00-25.22Q128.61-23.28 127.54-21.87Q126.47-20.45 124.48-19.50L124.48-19.50L130 0L120.80 0L116.37-18.06L113.83-18.06L113.83 0ZM113.83-34.33L113.83-23.18L116.32-23.18Q118.21-23.18 119.25-23.86Q120.30-24.53 120.72-25.80Q121.14-27.06 121.14-28.86L121.14-28.86Q121.14-31.44 120.20-32.89Q119.25-34.33 116.72-34.33L116.72-34.33L113.83-34.33ZM147.46 0L138.91 0L138.91-16.47L131.24-40.30L139.65-40.30L143.48-27.56L146.92-40.30L154.98-40.30L147.46-16.47L147.46 0Z" transform="translate(-2.985074626865672, 40.84577114427861)"></path></g></g></g></mask><defs v-gra="od"></defs></svg>